<?xml version="1.0" standalone="no"?>
<!DOCTYPE svg PUBLIC "-//W3C//DTD SVG 20010904//EN"
 "http://www.w3.org/TR/2001/REC-SVG-20010904/DTD/svg10.dtd">
<svg version="1.0" xmlns="http://www.w3.org/2000/svg"
 width="800.000000pt" height="800.000000pt" viewBox="0 0 800.000000 800.000000"
 preserveAspectRatio="xMidYMid meet">
<metadata>
Created by potrace 1.11, written by Peter Selinger 2001-2013
</metadata>
<g transform="translate(0.000000,800.000000) scale(0.100000,-0.100000)"
fill="#000000" stroke="none">
<path d="M1575 6985 c-236 -51 -425 -220 -503 -449 l-27 -81 0 -2450 0 -2450
29 -89 c67 -204 226 -364 430 -434 l81 -27 2450 0 2450 0 89 29 c207 68 364
225 432 433 l29 88 0 2450 0 2450 -27 81 c-69 201 -226 359 -429 430 l-84 29
-2430 2 c-1976 1 -2441 -1 -2490 -12z m2716 -1417 c121 -45 227 -135 292 -248
83 -146 92 -364 19 -506 l-21 -41 172 -43 c95 -24 177 -45 183 -47 5 -2 21 20
34 49 168 374 196 427 274 503 115 114 236 165 391 165 158 0 272 -47 387
-161 59 -57 86 -93 112 -150 53 -110 59 -161 52 -414 -3 -121 -9 -359 -12
-530 -3 -170 -7 -321 -10 -334 -2 -14 -4 -131 -5 -260 -3 -414 -18 -532 -88
-685 -156 -344 -539 -563 -903 -517 -213 27 -381 105 -526 245 -237 227 -333
576 -242 884 l18 62 -21 4 c-12 3 -92 12 -177 22 -85 9 -201 21 -256 28 l-101
11 -83 -135 c-46 -74 -121 -198 -168 -275 -110 -179 -168 -252 -266 -331 -111
-89 -235 -147 -388 -183 -61 -14 -285 -14 -346 0 -189 44 -327 119 -456 245
-133 131 -218 295 -252 489 -33 185 -1 379 92 553 65 125 101 163 303 327 486
393 717 581 1453 1181 58 49 135 88 210 109 81 23 245 14 329 -17z"/>
<path d="M3874 5440 c-33 -11 -92 -51 -171 -116 -823 -677 -1102 -909 -1098
-913 5 -5 272 17 342 28 38 6 55 20 219 196 97 105 234 251 303 325 409 437
467 501 460 499 -2 0 -27 -9 -55 -19z"/>
<path d="M5301 5198 c-28 -25 -63 -98 -201 -422 -315 -737 -350 -820 -348
-826 2 -4 71 24 155 63 l152 70 141 570 c77 313 140 571 138 572 -2 2 -18 -10
-37 -27z"/>
<path d="M2680 4260 c-241 -36 -457 -204 -549 -428 -41 -100 -54 -165 -53
-277 0 -314 189 -572 492 -675 89 -30 278 -38 372 -16 393 92 633 484 533 871
-8 33 -34 98 -57 145 -33 68 -58 102 -127 171 -96 96 -181 149 -298 185 -84
26 -228 37 -313 24z m625 -470 c42 -83 59 -159 58 -260 0 -133 -35 -238 -110
-336 -201 -265 -568 -308 -824 -98 -78 63 -80 75 -11 51 259 -87 533 49 691
345 61 113 87 187 126 363 l7 30 20 -25 c11 -14 30 -45 43 -70z"/>
<path d="M5154 3941 c-168 -27 -349 -131 -449 -258 -107 -137 -154 -273 -155
-448 -1 -271 153 -518 395 -635 112 -54 183 -70 311 -70 214 1 375 69 520 221
129 136 194 301 194 493 0 314 -225 601 -535 681 -73 19 -212 27 -281 16z
m596 -422 c79 -122 109 -293 76 -433 -47 -197 -195 -355 -396 -422 -82 -27
-244 -25 -332 4 -87 29 -172 80 -228 136 l-44 46 59 -21 c279 -98 574 65 730
405 37 79 82 225 92 294 3 23 7 42 8 42 2 0 18 -23 35 -51z"/>
</g>
</svg>
